<?xml version="1.0" encoding="UTF-8"?>
<!DOCTYPE svg PUBLIC "-//W3C//DTD SVG 1.1//EN" "http://www.w3.org/Graphics/SVG/1.1/DTD/svg11.dtd">
<svg xmlns="http://www.w3.org/2000/svg" version="1.1" width="512px" height="512px" style="shape-rendering:geometricPrecision; text-rendering:geometricPrecision; image-rendering:optimizeQuality; fill-rule:evenodd; clip-rule:evenodd" xmlns:xlink="http://www.w3.org/1999/xlink">
<g><path style="opacity:0.998" fill="#b8dc39" d="M 116.5,-0.5 C 159.5,-0.5 202.5,-0.5 245.5,-0.5C 256.503,3.16947 263.836,10.5028 267.5,21.5C 229.886,32.9278 192.553,44.9278 155.5,57.5C 134.663,58.1356 113.997,58.1356 93.5,57.5C 93.1024,44.7808 93.6024,32.1142 95,19.5C 99.2046,9.45576 106.371,2.7891 116.5,-0.5 Z"/></g>
<g><path style="opacity:1" fill="#8fcb1b" d="M 245.5,-0.5 C 260.5,-0.5 275.5,-0.5 290.5,-0.5C 304.016,2.01425 312.349,10.0143 315.5,23.5C 300.536,25.4841 285.203,26.1507 269.5,25.5C 269.828,36.3464 269.494,47.0131 268.5,57.5C 268.828,45.3217 268.495,33.3217 267.5,21.5C 263.836,10.5028 256.503,3.16947 245.5,-0.5 Z"/></g>
<g><path style="opacity:0.988" fill="#64ba02" d="M 290.5,-0.5 C 306.833,-0.5 323.167,-0.5 339.5,-0.5C 351.317,3.31944 358.65,11.3194 361.5,23.5C 346.5,23.5 331.5,23.5 316.5,23.5C 316.167,23.5 315.833,23.5 315.5,23.5C 312.349,10.0143 304.016,2.01425 290.5,-0.5 Z"/></g>
<g><path style="opacity:0.985" fill="#56af1b" d="M 316.5,23.5 C 331.5,23.5 346.5,23.5 361.5,23.5C 361.5,26.1667 361.5,28.8333 361.5,31.5C 346.5,31.5 331.5,31.5 316.5,31.5C 316.5,28.8333 316.5,26.1667 316.5,23.5 Z"/></g>
<g><path style="opacity:1" fill="#b2d93c" d="M 267.5,21.5 C 268.495,33.3217 268.828,45.3217 268.5,57.5C 261.167,57.5 253.833,57.5 246.5,57.5C 216.167,57.5 185.833,57.5 155.5,57.5C 192.553,44.9278 229.886,32.9278 267.5,21.5 Z"/></g>
<g><path style="opacity:0.997" fill="#49a631" d="M 316.5,31.5 C 331.5,31.5 346.5,31.5 361.5,31.5C 361.5,33.8333 361.5,36.1667 361.5,38.5C 346.5,38.5 331.5,38.5 316.5,38.5C 316.5,36.1667 316.5,33.8333 316.5,31.5 Z"/></g>
<g><path style="opacity:0.995" fill="#3f9f42" d="M 316.5,38.5 C 331.5,38.5 346.5,38.5 361.5,38.5C 361.5,40.8333 361.5,43.1667 361.5,45.5C 346.5,45.5 331.5,45.5 316.5,45.5C 316.5,43.1667 316.5,40.8333 316.5,38.5 Z"/></g>
<g><path style="opacity:1" fill="#7ac316" d="M 315.5,23.5 C 315.833,23.5 316.167,23.5 316.5,23.5C 316.5,26.1667 316.5,28.8333 316.5,31.5C 316.5,33.8333 316.5,36.1667 316.5,38.5C 316.5,40.8333 316.5,43.1667 316.5,45.5C 316.5,47.5 316.5,49.5 316.5,51.5C 316.5,53.1667 316.5,54.8333 316.5,56.5C 316.5,58.8333 316.5,61.1667 316.5,63.5C 316.5,65.5 316.5,67.5 316.5,69.5C 314.833,69.5 313.167,69.5 311.5,69.5C 306.569,64.1999 300.569,60.6999 293.5,59C 279.171,58.5001 264.837,58.3334 250.5,58.5C 249.167,58.5 247.833,58.5 246.5,58.5C 246.5,58.1667 246.5,57.8333 246.5,57.5C 253.833,57.5 261.167,57.5 268.5,57.5C 269.494,47.0131 269.828,36.3464 269.5,25.5C 285.203,26.1507 300.536,25.4841 315.5,23.5 Z"/></g>
<g><path style="opacity:0.995" fill="#369851" d="M 316.5,45.5 C 331.5,45.5 346.5,45.5 361.5,45.5C 361.5,47.5 361.5,49.5 361.5,51.5C 346.5,51.5 331.5,51.5 316.5,51.5C 316.5,49.5 316.5,47.5 316.5,45.5 Z"/></g>
<g><path style="opacity:0.995" fill="#2e925f" d="M 316.5,51.5 C 331.5,51.5 346.5,51.5 361.5,51.5C 361.5,53.1667 361.5,54.8333 361.5,56.5C 346.5,56.5 331.5,56.5 316.5,56.5C 316.5,54.8333 316.5,53.1667 316.5,51.5 Z"/></g>
<g><path style="opacity:0.992" fill="#75e1f6" d="M 93.5,57.5 C 113.997,58.1356 134.663,58.1356 155.5,57.5C 185.833,57.5 216.167,57.5 246.5,57.5C 246.5,57.8333 246.5,58.1667 246.5,58.5C 231.5,58.5 216.5,58.5 201.5,58.5C 184.497,58.3334 167.497,58.5001 150.5,59C 131.298,78.0347 112.298,97.2014 93.5,116.5C 78.8333,116.5 64.1667,116.5 49.5,116.5C 49.3335,105.162 49.5001,93.8284 50,82.5C 52.2151,70.6193 59.0485,62.786 70.5,59C 78.0952,57.6439 85.7618,57.1439 93.5,57.5 Z"/></g>
<g><path style="opacity:1" fill="#70dcf5" d="M 201.5,58.5 C 219.606,65.0097 227.272,78.0097 224.5,97.5C 224.5,103.833 224.5,110.167 224.5,116.5C 217.167,116.5 209.833,116.5 202.5,116.5C 186.5,116.5 170.5,116.5 154.5,116.5C 134.167,116.5 113.833,116.5 93.5,116.5C 112.298,97.2014 131.298,78.0347 150.5,59C 167.497,58.5001 184.497,58.3334 201.5,58.5 Z"/></g>
<g><path style="opacity:1" fill="#46b1e3" d="M 201.5,58.5 C 216.5,58.5 231.5,58.5 246.5,58.5C 247.833,58.5 249.167,58.5 250.5,58.5C 261.304,62.6396 268.304,70.3062 271.5,81.5C 271.5,82.5 271.5,83.5 271.5,84.5C 256.167,84.5 240.833,84.5 225.5,84.5C 225.818,89.0323 225.485,93.3656 224.5,97.5C 227.272,78.0097 219.606,65.0097 201.5,58.5 Z"/></g>
<g><path style="opacity:1" fill="#0294fb" d="M 250.5,58.5 C 264.837,58.3334 279.171,58.5001 293.5,59C 300.569,60.6999 306.569,64.1999 311.5,69.5C 312.167,70.8333 312.833,72.1667 313.5,73.5C 315.353,76.2084 316.353,79.2084 316.5,82.5C 316.5,83.5 316.5,84.5 316.5,85.5C 301.833,85.5 287.167,85.5 272.5,85.5C 272.768,83.901 272.434,82.5676 271.5,81.5C 268.304,70.3062 261.304,62.6396 250.5,58.5 Z"/></g>
<g><path style="opacity:0.995" fill="#258c6f" d="M 316.5,56.5 C 331.5,56.5 346.5,56.5 361.5,56.5C 361.5,58.8333 361.5,61.1667 361.5,63.5C 346.5,63.5 331.5,63.5 316.5,63.5C 316.5,61.1667 316.5,58.8333 316.5,56.5 Z"/></g>
<g><path style="opacity:0.995" fill="#268a7a" d="M 316.5,63.5 C 331.5,63.5 346.5,63.5 361.5,63.5C 361.5,65.1667 361.5,66.8333 361.5,68.5C 346.676,69.4961 331.676,69.8294 316.5,69.5C 316.5,67.5 316.5,65.5 316.5,63.5 Z"/></g>
<g><path style="opacity:0.994" fill="#9dcd48" d="M 361.5,68.5 C 375.5,68.5 389.5,68.5 403.5,68.5C 408.985,69.3272 414.652,69.8272 420.5,70C 393.04,78.5424 365.707,87.3758 338.5,96.5C 330.447,88.4432 322.113,80.7765 313.5,73.5C 312.833,72.1667 312.167,70.8333 311.5,69.5C 313.167,69.5 314.833,69.5 316.5,69.5C 331.676,69.8294 346.676,69.4961 361.5,68.5 Z"/></g>
<g><path style="opacity:0.975" fill="#98c94b" d="M 403.5,68.5 C 424.836,68.3334 446.169,68.5 467.5,69C 469.92,69.2904 472.254,69.7904 474.5,70.5C 447.145,79.5622 419.645,88.5622 392,97.5C 390.97,97.8361 390.47,98.5028 390.5,99.5C 389.833,99.1667 389.167,98.8333 388.5,98.5C 388.082,97.7784 387.416,97.2784 386.5,97C 365.671,91.6637 357.338,99.4971 361.5,120.5C 353.842,112.542 346.176,104.542 338.5,96.5C 365.707,87.3758 393.04,78.5424 420.5,70C 414.652,69.8272 408.985,69.3272 403.5,68.5 Z"/></g>
<g><path style="opacity:0.994" fill="#93c64e" d="M 474.5,70.5 C 485.82,73.4924 494.154,80.1591 499.5,90.5C 498.735,90.0766 497.902,89.7432 497,89.5C 487.762,92.1843 478.929,95.5176 470.5,99.5C 469.395,98.3995 468.062,97.7329 466.5,97.5C 460.347,96.3467 454.014,96.18 447.5,97C 443.55,99.4359 441.55,102.936 441.5,107.5C 438.888,108.371 436.221,109.037 433.5,109.5C 433.813,113.042 433.479,116.375 432.5,119.5C 432.666,113.824 432.499,108.157 432,102.5C 431.623,101.058 430.79,100.058 429.5,99.5C 428.942,98.2101 427.942,97.3768 426.5,97C 404.219,92.0345 396.385,100.535 403,122.5C 404.73,124.402 406.563,126.069 408.5,127.5C 400.833,127.5 393.167,127.5 385.5,127.5C 388.815,126.348 390.982,124.015 392,120.5C 393.046,113.297 392.546,106.297 390.5,99.5C 390.47,98.5028 390.97,97.8361 392,97.5C 419.645,88.5622 447.145,79.5622 474.5,70.5 Z"/></g>
<g><path style="opacity:1" fill="#028de6" d="M 272.5,85.5 C 287.167,85.5 301.833,85.5 316.5,85.5C 316.5,88.5 316.5,91.5 316.5,94.5C 301.833,94.5 287.167,94.5 272.5,94.5C 272.5,91.5 272.5,88.5 272.5,85.5 Z"/></g>
<g><path style="opacity:1" fill="#fbbd00" d="M 388.5,98.5 C 386.629,98.8588 385.129,99.8588 384,101.5C 377.949,109.378 372.115,117.378 366.5,125.5C 364.473,124.139 362.806,122.473 361.5,120.5C 357.338,99.4971 365.671,91.6637 386.5,97C 387.416,97.2784 388.082,97.7784 388.5,98.5 Z"/></g>
<g><path style="opacity:1" fill="#fcbc00" d="M 429.5,99.5 C 423.02,107.764 416.52,116.098 410,124.5C 409.517,125.448 409.351,126.448 409.5,127.5C 409.167,127.5 408.833,127.5 408.5,127.5C 406.563,126.069 404.73,124.402 403,122.5C 396.385,100.535 404.219,92.0345 426.5,97C 427.942,97.3768 428.942,98.2101 429.5,99.5 Z"/></g>
<g><path style="opacity:1" fill="#fbbe01" d="M 466.5,97.5 C 464.629,97.8588 463.129,98.8588 462,100.5C 456.303,108.351 450.47,116.018 444.5,123.5C 443.034,122.653 442.2,121.32 442,119.5C 441.501,115.514 441.334,111.514 441.5,107.5C 441.55,102.936 443.55,99.4359 447.5,97C 454.014,96.18 460.347,96.3467 466.5,97.5 Z"/></g>
<g><path style="opacity:1" fill="#2fa7ec" d="M 271.5,81.5 C 272.434,82.5676 272.768,83.901 272.5,85.5C 272.5,88.5 272.5,91.5 272.5,94.5C 272.5,97.8333 272.5,101.167 272.5,104.5C 256.833,104.5 241.167,104.5 225.5,104.5C 225.5,108.5 225.5,112.5 225.5,116.5C 225.167,116.5 224.833,116.5 224.5,116.5C 224.5,110.167 224.5,103.833 224.5,97.5C 225.485,93.3656 225.818,89.0323 225.5,84.5C 240.833,84.5 256.167,84.5 271.5,84.5C 271.5,83.5 271.5,82.5 271.5,81.5 Z"/></g>
<g><path style="opacity:1" fill="#faab03" d="M 466.5,97.5 C 468.062,97.7329 469.395,98.3995 470.5,99.5C 471.504,100.683 472.338,102.016 473,103.5C 473.817,109.016 473.651,114.35 472.5,119.5C 472.666,114.489 472.499,109.489 472,104.5C 465.672,111.837 459.839,119.504 454.5,127.5C 450.225,128.25 446.891,126.917 444.5,123.5C 450.47,116.018 456.303,108.351 462,100.5C 463.129,98.8588 464.629,97.8588 466.5,97.5 Z"/></g>
<g><path style="opacity:1" fill="#fda200" d="M 388.5,98.5 C 389.167,98.8333 389.833,99.1667 390.5,99.5C 392.546,106.297 393.046,113.297 392,120.5C 390.982,124.015 388.815,126.348 385.5,127.5C 379.5,127.5 373.5,127.5 367.5,127.5C 367.167,126.833 366.833,126.167 366.5,125.5C 372.115,117.378 377.949,109.378 384,101.5C 385.129,99.8588 386.629,98.8588 388.5,98.5 Z"/></g>
<g><path style="opacity:1" fill="#0587d0" d="M 272.5,94.5 C 287.167,94.5 301.833,94.5 316.5,94.5C 316.5,99.8333 316.5,105.167 316.5,110.5C 301.833,110.5 287.167,110.5 272.5,110.5C 272.5,108.5 272.5,106.5 272.5,104.5C 272.5,101.167 272.5,97.8333 272.5,94.5 Z"/></g>
<g><path style="opacity:0.994" fill="#88c054" d="M 499.5,90.5 C 502.535,94.5911 504.369,99.2578 505,104.5C 505.5,111.492 505.666,118.492 505.5,125.5C 487.369,130.766 469.369,136.433 451.5,142.5C 443.747,134.624 434.414,129.957 423.5,128.5C 423.5,128.167 423.5,127.833 423.5,127.5C 428.39,126.943 431.39,124.276 432.5,119.5C 433.479,116.375 433.813,113.042 433.5,109.5C 436.221,109.037 438.888,108.371 441.5,107.5C 441.334,111.514 441.501,115.514 442,119.5C 442.2,121.32 443.034,122.653 444.5,123.5C 446.891,126.917 450.225,128.25 454.5,127.5C 459.267,127.809 463.934,127.309 468.5,126C 470.734,124.362 472.067,122.195 472.5,119.5C 473.651,114.35 473.817,109.016 473,103.5C 472.338,102.016 471.504,100.683 470.5,99.5C 478.929,95.5176 487.762,92.1843 497,89.5C 497.902,89.7432 498.735,90.0766 499.5,90.5 Z"/></g>
<g><path style="opacity:1" fill="#6cab5d" d="M 313.5,73.5 C 322.113,80.7765 330.447,88.4432 338.5,96.5C 346.176,104.542 353.842,112.542 361.5,120.5C 362.806,122.473 364.473,124.139 366.5,125.5C 366.833,126.167 367.167,126.833 367.5,127.5C 350.833,127.5 334.167,127.5 317.5,127.5C 317.829,112.324 317.496,97.324 316.5,82.5C 316.353,79.2084 315.353,76.2084 313.5,73.5 Z"/></g>
<g><path style="opacity:1" fill="#fd9d00" d="M 429.5,99.5 C 430.79,100.058 431.623,101.058 432,102.5C 432.499,108.157 432.666,113.824 432.5,119.5C 431.39,124.276 428.39,126.943 423.5,127.5C 418.833,127.5 414.167,127.5 409.5,127.5C 409.351,126.448 409.517,125.448 410,124.5C 416.52,116.098 423.02,107.764 429.5,99.5 Z"/></g>
<g><path style="opacity:1" fill="#fe9900" d="M 472.5,119.5 C 472.067,122.195 470.734,124.362 468.5,126C 463.934,127.309 459.267,127.809 454.5,127.5C 459.839,119.504 465.672,111.837 472,104.5C 472.499,109.489 472.666,114.489 472.5,119.5 Z"/></g>
<g><path style="opacity:1" fill="#219ff2" d="M 272.5,104.5 C 272.5,106.5 272.5,108.5 272.5,110.5C 272.5,116.167 272.5,121.833 272.5,127.5C 270.5,127.5 268.5,127.5 266.5,127.5C 262.51,122.833 257.51,119.666 251.5,118C 242.893,116.661 234.226,116.161 225.5,116.5C 225.5,112.5 225.5,108.5 225.5,104.5C 241.167,104.5 256.833,104.5 272.5,104.5 Z"/></g>
<g><path style="opacity:1" fill="#0781bb" d="M 272.5,110.5 C 287.167,110.5 301.833,110.5 316.5,110.5C 316.5,116.167 316.5,121.833 316.5,127.5C 301.833,127.5 287.167,127.5 272.5,127.5C 272.5,121.833 272.5,116.167 272.5,110.5 Z"/></g>
<g><path style="opacity:0.995" fill="#fed729" d="M 49.5,116.5 C 64.1667,116.5 78.8333,116.5 93.5,116.5C 113.833,116.5 134.167,116.5 154.5,116.5C 160.618,117.559 165.951,120.226 170.5,124.5C 116.201,179.299 61.7014,233.965 7,288.5C 6.82382,292.688 6.32382,296.688 5.5,300.5C 5.33334,247.166 5.50001,193.832 6,140.5C 9.05856,128.441 16.5586,120.608 28.5,117C 35.4921,116.5 42.4921,116.334 49.5,116.5 Z"/></g>
<g><path style="opacity:1" fill="#fcbc00" d="M 154.5,116.5 C 170.5,116.5 186.5,116.5 202.5,116.5C 215.053,118.956 223.387,126.29 227.5,138.5C 227.5,139.167 227.5,139.833 227.5,140.5C 227.5,142.5 227.5,144.5 227.5,146.5C 212.167,146.5 196.833,146.5 181.5,146.5C 181.817,150.702 181.483,154.702 180.5,158.5C 180.666,152.158 180.5,145.825 180,139.5C 178.612,133.297 175.445,128.297 170.5,124.5C 165.951,120.226 160.618,117.559 154.5,116.5 Z"/></g>
<g><path style="opacity:1" fill="#fc9003" d="M 202.5,116.5 C 209.833,116.5 217.167,116.5 224.5,116.5C 224.833,116.5 225.167,116.5 225.5,116.5C 234.226,116.161 242.893,116.661 251.5,118C 257.51,119.666 262.51,122.833 266.5,127.5C 267.167,128.5 267.833,129.5 268.5,130.5C 270.105,133.378 271.439,136.378 272.5,139.5C 257.578,138.517 242.578,138.184 227.5,138.5C 223.387,126.29 215.053,118.956 202.5,116.5 Z"/></g>
<g><path style="opacity:0.986" fill="#7fbc59" d="M 505.5,125.5 C 505.5,135.833 505.5,146.167 505.5,156.5C 504.532,158.607 504.198,160.941 504.5,163.5C 496.218,166.039 487.885,168.372 479.5,170.5C 471.447,162.443 463.113,154.777 454.5,147.5C 453.075,146.078 452.075,144.411 451.5,142.5C 469.369,136.433 487.369,130.766 505.5,125.5 Z"/></g>
<g><path style="opacity:1" fill="#5dc5e9" d="M 316.5,82.5 C 317.496,97.324 317.829,112.324 317.5,127.5C 334.167,127.5 350.833,127.5 367.5,127.5C 373.5,127.5 379.5,127.5 385.5,127.5C 393.167,127.5 400.833,127.5 408.5,127.5C 408.833,127.5 409.167,127.5 409.5,127.5C 414.167,127.5 418.833,127.5 423.5,127.5C 423.5,127.833 423.5,128.167 423.5,128.5C 420.15,128.335 416.817,128.502 413.5,129C 403.964,138.368 394.631,147.868 385.5,157.5C 361.992,149.172 353.159,157.172 359,181.5C 360.214,183.049 361.714,184.215 363.5,185C 367.356,185.177 371.023,185.677 374.5,186.5C 359.833,186.5 345.167,186.5 330.5,186.5C 311.5,186.5 292.5,186.5 273.5,186.5C 273.5,186.167 273.5,185.833 273.5,185.5C 290.167,185.5 306.833,185.5 323.5,185.5C 345.882,189.952 353.716,181.285 347,159.5C 345.269,157.383 343.102,155.883 340.5,155C 321.319,151.349 313.652,159.182 317.5,178.5C 301.119,162.451 284.786,146.451 268.5,130.5C 267.833,129.5 267.167,128.5 266.5,127.5C 268.5,127.5 270.5,127.5 272.5,127.5C 287.167,127.5 301.833,127.5 316.5,127.5C 316.5,121.833 316.5,116.167 316.5,110.5C 316.5,105.167 316.5,99.8333 316.5,94.5C 316.5,91.5 316.5,88.5 316.5,85.5C 316.5,84.5 316.5,83.5 316.5,82.5 Z"/></g>
<g><path style="opacity:1" fill="#55bee7" d="M 423.5,128.5 C 434.414,129.957 443.747,134.624 451.5,142.5C 452.075,144.411 453.075,146.078 454.5,147.5C 456.438,151.043 458.105,154.71 459.5,158.5C 458.883,158.389 458.383,158.056 458,157.5C 441.965,173.368 426.132,189.368 410.5,205.5C 403.408,195.419 393.742,189.419 381.5,187.5C 381.5,187.167 381.5,186.833 381.5,186.5C 384.139,184.691 386.306,182.358 388,179.5C 388.667,173.167 388.667,166.833 388,160.5C 386.955,159.627 386.122,158.627 385.5,157.5C 394.631,147.868 403.964,138.368 413.5,129C 416.817,128.502 420.15,128.335 423.5,128.5 Z"/></g>
<g><path style="opacity:0.997" fill="#fed322" d="M 170.5,124.5 C 175.445,128.297 178.612,133.297 180,139.5C 180.5,145.825 180.666,152.158 180.5,158.5C 180.177,164.69 180.51,170.69 181.5,176.5C 181.893,178.284 182.559,179.95 183.5,181.5C 124.868,240.632 66.0347,299.632 7,358.5C 6.82474,363.019 6.32474,367.353 5.5,371.5C 5.5,347.833 5.5,324.167 5.5,300.5C 6.32382,296.688 6.82382,292.688 7,288.5C 61.7014,233.965 116.201,179.299 170.5,124.5 Z"/></g>
<g><path style="opacity:1" fill="#fa820d" d="M 227.5,138.5 C 242.578,138.184 257.578,138.517 272.5,139.5C 272.5,140.167 272.5,140.833 272.5,141.5C 272.5,143.5 272.5,145.5 272.5,147.5C 257.833,147.5 243.167,147.5 228.5,147.5C 228.802,144.941 228.468,142.607 227.5,140.5C 227.5,139.833 227.5,139.167 227.5,138.5 Z"/></g>
<g><path style="opacity:1" fill="#f6741a" d="M 228.5,147.5 C 243.167,147.5 257.833,147.5 272.5,147.5C 272.5,152.5 272.5,157.5 272.5,162.5C 257.833,162.5 243.167,162.5 228.5,162.5C 228.5,161.833 228.5,161.167 228.5,160.5C 228.5,156.167 228.5,151.833 228.5,147.5 Z"/></g>
<g><path style="opacity:1" fill="#fdad00" d="M 227.5,140.5 C 228.468,142.607 228.802,144.941 228.5,147.5C 228.5,151.833 228.5,156.167 228.5,160.5C 227.566,161.568 227.232,162.901 227.5,164.5C 212.167,164.5 196.833,164.5 181.5,164.5C 181.5,168.5 181.5,172.5 181.5,176.5C 180.51,170.69 180.177,164.69 180.5,158.5C 181.483,154.702 181.817,150.702 181.5,146.5C 196.833,146.5 212.167,146.5 227.5,146.5C 227.5,144.5 227.5,142.5 227.5,140.5 Z"/></g>
<g><path style="opacity:1" fill="#e5f0fe" d="M 323.5,185.5 C 321.5,183.167 319.5,180.833 317.5,178.5C 313.652,159.182 321.319,151.349 340.5,155C 343.102,155.883 345.269,157.383 347,159.5C 353.716,181.285 345.882,189.952 323.5,185.5 Z"/></g>
<g><path style="opacity:1" fill="#e0eefe" d="M 405.5,154.5 C 425.013,151.179 432.847,159.179 429,178.5C 427.75,181.171 425.917,183.337 423.5,185C 399.919,190.379 392.085,181.545 400,158.5C 401.812,157.023 403.645,155.69 405.5,154.5 Z"/></g>
<g><path style="opacity:1" fill="#4eb8e5" d="M 459.5,158.5 C 460.219,160.764 460.552,163.097 460.5,165.5C 460.5,195.167 460.5,224.833 460.5,254.5C 444.368,238.868 428.368,223.035 412.5,207C 411.906,206.536 411.239,206.369 410.5,206.5C 410.5,206.167 410.5,205.833 410.5,205.5C 426.132,189.368 441.965,173.368 458,157.5C 458.383,158.056 458.883,158.389 459.5,158.5 Z"/></g>
<g><path style="opacity:1" fill="#e1eefe" d="M 385.5,157.5 C 386.122,158.627 386.955,159.627 388,160.5C 388.667,166.833 388.667,173.167 388,179.5C 386.306,182.358 384.139,184.691 381.5,186.5C 379.167,186.5 376.833,186.5 374.5,186.5C 371.023,185.677 367.356,185.177 363.5,185C 361.714,184.215 360.214,183.049 359,181.5C 353.159,157.172 361.992,149.172 385.5,157.5 Z"/></g>
<g><path style="opacity:1" fill="#f1612b" d="M 228.5,162.5 C 243.167,162.5 257.833,162.5 272.5,162.5C 272.5,165.167 272.5,167.833 272.5,170.5C 257.833,170.5 243.167,170.5 228.5,170.5C 228.5,167.833 228.5,165.167 228.5,162.5 Z"/></g>
<g><path style="opacity:1" fill="#228aae" d="M 268.5,130.5 C 284.786,146.451 301.119,162.451 317.5,178.5C 319.5,180.833 321.5,183.167 323.5,185.5C 306.833,185.5 290.167,185.5 273.5,185.5C 273.829,170.657 273.496,155.99 272.5,141.5C 272.5,140.833 272.5,140.167 272.5,139.5C 271.439,136.378 270.105,133.378 268.5,130.5 Z"/></g>
<g><path style="opacity:0.932" fill="#75b65f" d="M 505.5,156.5 C 505.5,169.833 505.5,183.167 505.5,196.5C 502.167,193.5 498.833,190.5 495.5,187.5C 490.167,181.833 484.833,176.167 479.5,170.5C 487.885,168.372 496.218,166.039 504.5,163.5C 504.198,160.941 504.532,158.607 505.5,156.5 Z"/></g>
<g><path style="opacity:1" fill="#fea000" d="M 228.5,160.5 C 228.5,161.167 228.5,161.833 228.5,162.5C 228.5,165.167 228.5,167.833 228.5,170.5C 228.5,175.833 228.5,181.167 228.5,186.5C 215.829,186.667 203.162,186.5 190.5,186C 187.798,184.988 185.465,183.488 183.5,181.5C 182.559,179.95 181.893,178.284 181.5,176.5C 181.5,172.5 181.5,168.5 181.5,164.5C 196.833,164.5 212.167,164.5 227.5,164.5C 227.232,162.901 227.566,161.568 228.5,160.5 Z"/></g>
<g><path style="opacity:0.999" fill="#fdcf1b" d="M 183.5,181.5 C 185.465,183.488 187.798,184.988 190.5,186C 203.162,186.5 215.829,186.667 228.5,186.5C 239.167,186.5 249.833,186.5 260.5,186.5C 176.201,271.299 91.7013,355.965 7,440.5C 6.8227,436.644 6.3227,432.977 5.5,429.5C 5.5,410.167 5.5,390.833 5.5,371.5C 6.32474,367.353 6.82474,363.019 7,358.5C 66.0347,299.632 124.868,240.632 183.5,181.5 Z"/></g>
<g><path style="opacity:1" fill="#e9543c" d="M 272.5,141.5 C 273.496,155.99 273.829,170.657 273.5,185.5C 273.5,185.833 273.5,186.167 273.5,186.5C 269.167,186.5 264.833,186.5 260.5,186.5C 249.833,186.5 239.167,186.5 228.5,186.5C 228.5,181.167 228.5,175.833 228.5,170.5C 243.167,170.5 257.833,170.5 272.5,170.5C 272.5,167.833 272.5,165.167 272.5,162.5C 272.5,157.5 272.5,152.5 272.5,147.5C 272.5,145.5 272.5,143.5 272.5,141.5 Z"/></g>
<g><path style="opacity:0.999" fill="#fecb15" d="M 260.5,186.5 C 264.833,186.5 269.167,186.5 273.5,186.5C 292.5,186.5 311.5,186.5 330.5,186.5C 320.778,196.219 311.445,206.219 302.5,216.5C 277.171,207.322 268.171,215.655 275.5,241.5C 202.701,314.799 129.701,387.965 56.5,461C 52.5,461.333 48.5,461.667 44.5,462C 43.6195,462.708 42.9528,463.542 42.5,464.5C 30.17,464.933 17.8367,465.266 5.5,465.5C 5.5,453.5 5.5,441.5 5.5,429.5C 6.3227,432.977 6.8227,436.644 7,440.5C 91.7013,355.965 176.201,271.299 260.5,186.5 Z"/></g>
<g><path style="opacity:1" fill="#fdc810" d="M 330.5,186.5 C 345.167,186.5 359.833,186.5 374.5,186.5C 376.833,186.5 379.167,186.5 381.5,186.5C 381.5,186.833 381.5,187.167 381.5,187.5C 369.535,198.965 357.702,210.631 346,222.5C 345.617,221.944 345.117,221.611 344.5,221.5C 343.523,217.19 340.856,214.523 336.5,213.5C 317.17,210.331 309.67,218.331 314,237.5C 314.608,239.066 315.442,240.4 316.5,241.5C 317.899,242.89 319.566,243.89 321.5,244.5C 321.611,245.117 321.944,245.617 322.5,246C 251.167,317.333 179.833,388.667 108.5,460C 88.1667,461 67.8333,462 47.5,463C 46.0953,464.269 44.4286,464.769 42.5,464.5C 42.9528,463.542 43.6195,462.708 44.5,462C 48.5,461.667 52.5,461.333 56.5,461C 129.701,387.965 202.701,314.799 275.5,241.5C 277.216,243.025 279.216,244.025 281.5,244.5C 287.176,244.666 292.843,244.499 298.5,244C 303.879,240.279 305.879,235.112 304.5,228.5C 304.333,225.5 304.167,222.5 304,219.5C 303.283,218.956 302.783,218.289 302.5,217.5C 302.5,217.167 302.5,216.833 302.5,216.5C 311.445,206.219 320.778,196.219 330.5,186.5 Z"/></g>
<g><path style="opacity:1" fill="#5aa46c" d="M 454.5,147.5 C 463.113,154.777 471.447,162.443 479.5,170.5C 484.833,176.167 490.167,181.833 495.5,187.5C 494.527,187.987 493.527,188.487 492.5,189C 494.044,189.29 495.377,189.956 496.5,191C 494.217,191.291 492.05,190.791 490,189.5C 489.5,189.833 489,190.167 488.5,190.5C 492.248,192.01 491.915,193.177 487.5,194C 489.087,194.862 490.754,195.529 492.5,196C 491.833,196.333 491.167,196.667 490.5,197C 491.833,197.667 493.167,198.333 494.5,199C 493.376,199.249 492.376,199.749 491.5,200.5C 494.569,202.435 494.736,204.102 492,205.5C 488.666,203.57 485.166,202.403 481.5,202C 486.34,204.042 490.34,206.376 493.5,209C 492.443,210.878 492.443,212.545 493.5,214C 494.833,214.667 496.167,215.333 497.5,216C 493.085,216.823 492.752,217.99 496.5,219.5C 496,219.833 495.5,220.167 495,220.5C 485.338,217.942 485.172,218.442 494.5,222C 495.815,223.395 495.481,224.395 493.5,225C 494.833,225.667 496.167,226.333 497.5,227C 495.709,227.415 494.376,228.415 493.5,230C 494.833,230.667 494.833,231.333 493.5,232C 495.087,232.862 496.754,233.529 498.5,234C 493.954,234.81 493.62,236.143 497.5,238C 493.728,238.611 493.728,239.611 497.5,241C 496.57,241.991 495.404,242.491 494,242.5C 491.522,241.668 489.022,241.501 486.5,242C 490.915,242.823 491.248,243.99 487.5,245.5C 491.248,247.01 490.915,248.177 486.5,249C 487.672,249.419 488.672,250.085 489.5,251C 487.913,251.862 486.246,252.529 484.5,253C 488.38,254.857 488.046,256.19 483.5,257C 484.88,258.324 485.214,259.657 484.5,261C 485.624,261.249 486.624,261.749 487.5,262.5C 484.997,263.964 482.33,265.131 479.5,266C 481.167,267.333 482.833,268.667 484.5,270C 482.552,270.983 480.718,272.15 479,273.5C 478.667,273.167 478.333,272.833 478,272.5C 475.798,273.402 473.632,274.402 471.5,275.5C 473.667,276.948 476,278.115 478.5,279C 475.692,279.598 473.192,280.765 471,282.5C 470.911,284.113 471.745,285.28 473.5,286C 470.129,287.789 466.129,289.622 461.5,291.5C 461.832,249.33 461.499,207.33 460.5,165.5C 460.552,163.097 460.219,160.764 459.5,158.5C 458.105,154.71 456.438,151.043 454.5,147.5 Z"/></g>
<g><path style="opacity:1" fill="#fdc40a" d="M 381.5,187.5 C 393.742,189.419 403.408,195.419 410.5,205.5C 410.5,205.833 410.5,206.167 410.5,206.5C 413.003,210.496 414.836,214.829 416,219.5C 416.5,227.159 416.666,234.826 416.5,242.5C 343.167,315.167 270.167,388.167 197.5,461.5C 185.833,462.619 174.167,463.786 162.5,465C 149.167,465.333 135.833,465.667 122.5,466C 121.833,466.667 121.167,467.333 120.5,468C 99.8255,468.834 79.1588,469.834 58.5,471C 57.8333,471.667 57.1667,472.333 56.5,473C 48.1667,473.167 39.8333,473.333 31.5,473.5C 22.6024,473.471 13.9358,472.804 5.5,471.5C 5.5,469.5 5.5,467.5 5.5,465.5C 17.8367,465.266 30.17,464.933 42.5,464.5C 44.4286,464.769 46.0953,464.269 47.5,463C 67.8333,462 88.1667,461 108.5,460C 179.833,388.667 251.167,317.333 322.5,246C 321.944,245.617 321.611,245.117 321.5,244.5C 340.833,248.5 348.5,240.833 344.5,221.5C 345.117,221.611 345.617,221.944 346,222.5C 357.702,210.631 369.535,198.965 381.5,187.5 Z"/></g>
<g><path style="opacity:1" fill="#fd6177" d="M 302.5,216.5 C 302.5,216.833 302.5,217.167 302.5,217.5C 301.504,217.414 300.671,217.748 300,218.5C 293.201,226.786 287.034,235.453 281.5,244.5C 279.216,244.025 277.216,243.025 275.5,241.5C 268.171,215.655 277.171,207.322 302.5,216.5 Z"/></g>
<g><path style="opacity:1" fill="#fe637a" d="M 336.5,213.5 C 330.334,223.156 323.667,232.49 316.5,241.5C 315.442,240.4 314.608,239.066 314,237.5C 309.67,218.331 317.17,210.331 336.5,213.5 Z"/></g>
<g><path style="opacity:1" fill="#fd6278" d="M 379.5,214.5 C 378.617,216.91 377.45,219.243 376,221.5C 372,226.833 368,232.167 364,237.5C 362.147,239.28 360.313,240.947 358.5,242.5C 356.066,241.229 354.566,239.229 354,236.5C 350.729,215.95 359.229,208.616 379.5,214.5 Z"/></g>
<g><path style="opacity:1" fill="#f14d63" d="M 336.5,213.5 C 340.856,214.523 343.523,217.19 344.5,221.5C 348.5,240.833 340.833,248.5 321.5,244.5C 319.566,243.89 317.899,242.89 316.5,241.5C 323.667,232.49 330.334,223.156 336.5,213.5 Z"/></g>
<g><path style="opacity:1" fill="#ec455a" d="M 302.5,217.5 C 302.783,218.289 303.283,218.956 304,219.5C 304.167,222.5 304.333,225.5 304.5,228.5C 305.879,235.112 303.879,240.279 298.5,244C 292.843,244.499 287.176,244.666 281.5,244.5C 287.034,235.453 293.201,226.786 300,218.5C 300.671,217.748 301.504,217.414 302.5,217.5 Z"/></g>
<g><path style="opacity:1" fill="#ee485b" d="M 379.5,214.5 C 382.231,216.071 384.065,218.405 385,221.5C 387.765,243.197 378.932,250.197 358.5,242.5C 360.313,240.947 362.147,239.28 364,237.5C 368,232.167 372,226.833 376,221.5C 377.45,219.243 378.617,216.91 379.5,214.5 Z"/></g>
<g><path style="opacity:1" fill="#fdc205" d="M 416.5,242.5 C 416.5,251.833 416.5,261.167 416.5,270.5C 353.035,333.465 289.701,396.632 226.5,460C 216.824,460.421 207.157,460.921 197.5,461.5C 270.167,388.167 343.167,315.167 416.5,242.5 Z"/></g>
<g><path style="opacity:0.996" fill="#55a370" d="M 495.5,187.5 C 498.833,190.5 502.167,193.5 505.5,196.5C 505.5,225.5 505.5,254.5 505.5,283.5C 495.558,285.101 494.891,287.268 503.5,290C 501.1,291.057 498.767,291.724 496.5,292C 499.202,293.34 501.869,294.673 504.5,296C 500.811,295.659 497.311,294.493 494,292.5C 493.25,293.126 492.416,293.626 491.5,294C 494.167,295 496.833,296 499.5,297C 495.566,297.526 491.9,296.693 488.5,294.5C 488.167,294.833 487.833,295.167 487.5,295.5C 489.667,296.948 492,298.115 494.5,299C 492.705,299.257 490.705,299.923 488.5,301C 489.696,301.654 489.696,302.154 488.5,302.5C 487.549,301.674 486.549,301.508 485.5,302C 487.764,303.258 490.098,304.425 492.5,305.5C 482.417,309.639 472.084,312.972 461.5,315.5C 461.5,307.5 461.5,299.5 461.5,291.5C 466.129,289.622 470.129,287.789 473.5,286C 471.745,285.28 470.911,284.113 471,282.5C 473.192,280.765 475.692,279.598 478.5,279C 476,278.115 473.667,276.948 471.5,275.5C 473.632,274.402 475.798,273.402 478,272.5C 478.333,272.833 478.667,273.167 479,273.5C 480.718,272.15 482.552,270.983 484.5,270C 482.833,268.667 481.167,267.333 479.5,266C 482.33,265.131 484.997,263.964 487.5,262.5C 486.624,261.749 485.624,261.249 484.5,261C 485.214,259.657 484.88,258.324 483.5,257C 488.046,256.19 488.38,254.857 484.5,253C 486.246,252.529 487.913,251.862 489.5,251C 488.672,250.085 487.672,249.419 486.5,249C 490.915,248.177 491.248,247.01 487.5,245.5C 491.248,243.99 490.915,242.823 486.5,242C 489.022,241.501 491.522,241.668 494,242.5C 495.404,242.491 496.57,241.991 497.5,241C 493.728,239.611 493.728,238.611 497.5,238C 493.62,236.143 493.954,234.81 498.5,234C 496.754,233.529 495.087,232.862 493.5,232C 494.833,231.333 494.833,230.667 493.5,230C 494.376,228.415 495.709,227.415 497.5,227C 496.167,226.333 494.833,225.667 493.5,225C 495.481,224.395 495.815,223.395 494.5,222C 485.172,218.442 485.338,217.942 495,220.5C 495.5,220.167 496,219.833 496.5,219.5C 492.752,217.99 493.085,216.823 497.5,216C 496.167,215.333 494.833,214.667 493.5,214C 492.443,212.545 492.443,210.878 493.5,209C 490.34,206.376 486.34,204.042 481.5,202C 485.166,202.403 488.666,203.57 492,205.5C 494.736,204.102 494.569,202.435 491.5,200.5C 492.376,199.749 493.376,199.249 494.5,199C 493.167,198.333 491.833,197.667 490.5,197C 491.167,196.667 491.833,196.333 492.5,196C 490.754,195.529 489.087,194.862 487.5,194C 491.915,193.177 492.248,192.01 488.5,190.5C 489,190.167 489.5,189.833 490,189.5C 492.05,190.791 494.217,191.291 496.5,191C 495.377,189.956 494.044,189.29 492.5,189C 493.527,188.487 494.527,187.987 495.5,187.5 Z"/></g>
<g><path style="opacity:1" fill="#52a2c1" d="M 410.5,206.5 C 411.239,206.369 411.906,206.536 412.5,207C 428.368,223.035 444.368,238.868 460.5,254.5C 460.5,261.833 460.5,269.167 460.5,276.5C 455.489,276.666 450.489,276.499 445.5,276C 460.144,275.169 460.144,274.669 445.5,274.5C 436.173,275.068 426.84,275.402 417.5,275.5C 417.5,305.5 417.5,335.5 417.5,365.5C 417.5,394.833 417.5,424.167 417.5,453.5C 416.501,392.669 416.168,331.669 416.5,270.5C 416.5,261.167 416.5,251.833 416.5,242.5C 416.666,234.826 416.5,227.159 416,219.5C 414.836,214.829 413.003,210.496 410.5,206.5 Z"/></g>
<g><path style="opacity:1" fill="#fdbf01" d="M 416.5,270.5 C 416.168,331.669 416.501,392.669 417.5,453.5C 417.5,458.167 417.5,462.833 417.5,467.5C 391.214,466.175 364.714,465.509 338,465.5C 311.833,465.667 285.667,465.833 259.5,466C 251.833,467 244.167,468 236.5,469C 222.835,469.698 209.168,470.365 195.5,471C 194.833,471.667 194.167,472.333 193.5,473C 173.5,473.333 153.5,473.667 133.5,474C 126.167,475 118.833,476 111.5,477C 98.1667,477.333 84.8333,477.667 71.5,478C 50.4685,480.446 29.4685,482.279 8.5,483.5C 6.75466,479.8 5.75466,475.8 5.5,471.5C 13.9358,472.804 22.6024,473.471 31.5,473.5C 39.8333,473.333 48.1667,473.167 56.5,473C 57.1667,472.333 57.8333,471.667 58.5,471C 79.1588,469.834 99.8255,468.834 120.5,468C 121.167,467.333 121.833,466.667 122.5,466C 135.833,465.667 149.167,465.333 162.5,465C 174.167,463.786 185.833,462.619 197.5,461.5C 207.157,460.921 216.824,460.421 226.5,460C 289.701,396.632 353.035,333.465 416.5,270.5 Z"/></g>
<g><path style="opacity:0.985" fill="#4fa075" d="M 505.5,283.5 C 505.5,302.167 505.5,320.833 505.5,339.5C 502.233,340.756 498.899,341.923 495.5,343C 484.081,343.155 472.747,343.988 461.5,345.5C 461.5,335.5 461.5,325.5 461.5,315.5C 472.084,312.972 482.417,309.639 492.5,305.5C 490.098,304.425 487.764,303.258 485.5,302C 486.549,301.508 487.549,301.674 488.5,302.5C 489.696,302.154 489.696,301.654 488.5,301C 490.705,299.923 492.705,299.257 494.5,299C 492,298.115 489.667,296.948 487.5,295.5C 487.833,295.167 488.167,294.833 488.5,294.5C 491.9,296.693 495.566,297.526 499.5,297C 496.833,296 494.167,295 491.5,294C 492.416,293.626 493.25,293.126 494,292.5C 497.311,294.493 500.811,295.659 504.5,296C 501.869,294.673 499.202,293.34 496.5,292C 498.767,291.724 501.1,291.057 503.5,290C 494.891,287.268 495.558,285.101 505.5,283.5 Z"/></g>
<g><path style="opacity:1" fill="#51aeda" d="M 460.5,276.5 C 460.5,305.5 460.5,334.5 460.5,363.5C 446.173,364.21 431.839,364.876 417.5,365.5C 417.5,335.5 417.5,305.5 417.5,275.5C 426.84,275.402 436.173,275.068 445.5,274.5C 460.144,274.669 460.144,275.169 445.5,276C 450.489,276.499 455.489,276.666 460.5,276.5 Z"/></g>
<g><path style="opacity:0.991" fill="#43997b" d="M 505.5,339.5 C 505.5,343.833 505.5,348.167 505.5,352.5C 490.849,353.379 476.182,354.379 461.5,355.5C 461.5,352.167 461.5,348.833 461.5,345.5C 472.747,343.988 484.081,343.155 495.5,343C 498.899,341.923 502.233,340.756 505.5,339.5 Z"/></g>
<g><path style="opacity:0.993" fill="#3b9389" d="M 460.5,165.5 C 461.499,207.33 461.832,249.33 461.5,291.5C 461.5,299.5 461.5,307.5 461.5,315.5C 461.5,325.5 461.5,335.5 461.5,345.5C 461.5,348.833 461.5,352.167 461.5,355.5C 476.182,354.379 490.849,353.379 505.5,352.5C 505.268,357.99 504.268,363.324 502.5,368.5C 488.937,368.38 475.27,368.38 461.5,368.5C 461.5,377.167 461.5,385.833 461.5,394.5C 460.506,384.347 460.172,374.014 460.5,363.5C 460.5,334.5 460.5,305.5 460.5,276.5C 460.5,269.167 460.5,261.833 460.5,254.5C 460.5,224.833 460.5,195.167 460.5,165.5 Z"/></g>
<g><path style="opacity:0.998" fill="#56b4e1" d="M 460.5,363.5 C 460.172,374.014 460.506,384.347 461.5,394.5C 464.875,414.544 459.208,431.377 444.5,445C 436.366,450.544 427.366,453.378 417.5,453.5C 417.5,424.167 417.5,394.833 417.5,365.5C 431.839,364.876 446.173,364.21 460.5,363.5 Z"/></g>
<g><path style="opacity:0.989" fill="#287f7c" d="M 502.5,368.5 C 494.523,385.996 480.856,394.663 461.5,394.5C 461.5,385.833 461.5,377.167 461.5,368.5C 475.27,368.38 488.937,368.38 502.5,368.5 Z"/></g>
<g><path style="opacity:0.999" fill="#fdb803" d="M 417.5,467.5 C 417.658,470.902 417.324,474.236 416.5,477.5C 353.499,477.333 290.499,477.5 227.5,478C 220.167,479 212.833,480 205.5,481C 192.167,481.333 178.833,481.667 165.5,482C 157.833,483 150.167,484 142.5,485C 98.7831,485.786 55.4497,487.952 12.5,491.5C 10.127,489.421 8.79362,486.754 8.5,483.5C 29.4685,482.279 50.4685,480.446 71.5,478C 84.8333,477.667 98.1667,477.333 111.5,477C 118.833,476 126.167,475 133.5,474C 153.5,473.667 173.5,473.333 193.5,473C 194.167,472.333 194.833,471.667 195.5,471C 209.168,470.365 222.835,469.698 236.5,469C 244.167,468 251.833,467 259.5,466C 285.667,465.833 311.833,465.667 338,465.5C 364.714,465.509 391.214,466.175 417.5,467.5 Z"/></g>
<g><path style="opacity:0.999" fill="#fdb102" d="M 416.5,477.5 C 415.838,482.842 413.838,487.508 410.5,491.5C 378.34,490.167 345.84,489.5 313,489.5C 280.5,489.667 248,489.833 215.5,490C 208.167,491 200.833,492 193.5,493C 146.165,494.635 98.832,496.302 51.5,498C 41.6315,499.222 31.6315,500.222 21.5,501C 22.3805,501.708 23.0472,502.542 23.5,503.5C 18.4441,500.777 14.7774,496.777 12.5,491.5C 55.4497,487.952 98.7831,485.786 142.5,485C 150.167,484 157.833,483 165.5,482C 178.833,481.667 192.167,481.333 205.5,481C 212.833,480 220.167,479 227.5,478C 290.499,477.5 353.499,477.333 416.5,477.5 Z"/></g>
<g><path style="opacity:0.998" fill="#feab02" d="M 410.5,491.5 C 408.558,496.441 405.225,500.108 400.5,502.5C 400.611,501.883 400.944,501.383 401.5,501C 335.833,500.333 270.167,500.333 204.5,501C 150.642,503.445 96.6417,505.445 42.5,507C 40.1671,508.043 37.8337,508.876 35.5,509.5C 30.9136,508.54 26.9136,506.54 23.5,503.5C 23.0472,502.542 22.3805,501.708 21.5,501C 31.6315,500.222 41.6315,499.222 51.5,498C 98.832,496.302 146.165,494.635 193.5,493C 200.833,492 208.167,491 215.5,490C 248,489.833 280.5,489.667 313,489.5C 345.84,489.5 378.34,490.167 410.5,491.5 Z"/></g>
<g><path style="opacity:1" fill="#fea501" d="M 400.5,502.5 C 395.52,506.823 389.853,509.823 383.5,511.5C 268.833,511.5 154.167,511.5 39.5,511.5C 38.1667,510.833 36.8333,510.167 35.5,509.5C 37.8337,508.876 40.1671,508.043 42.5,507C 96.6417,505.445 150.642,503.445 204.5,501C 270.167,500.333 335.833,500.333 401.5,501C 400.944,501.383 400.611,501.883 400.5,502.5 Z"/></g>
</svg>
